<?xml version="1.0" standalone="no"?>
<!DOCTYPE svg PUBLIC "-//W3C//DTD SVG 20010904//EN"
 "http://www.w3.org/TR/2001/REC-SVG-20010904/DTD/svg10.dtd">
<svg version="1.0" xmlns="http://www.w3.org/2000/svg"
 width="200.000000pt" height="200.000000pt" viewBox="0 0 200.000000 200.000000"
 preserveAspectRatio="xMidYMid meet">

<g transform="translate(0.000000,200.000000) scale(0.100000,-0.100000)"
fill="#000000" stroke="none">
<path d="M0 1000 l0 -1000 1000 0 1000 0 0 1000 0 1000 -1000 0 -1000 0 0
-1000z m1780 70 l0 -551 -97 3 -98 3 -3 383 c-1 211 -6 382 -11 380 -26 -10
-210 -114 -211 -119 0 -3 43 -29 95 -59 l95 -54 0 -83 c0 -61 -3 -83 -13 -83
-7 0 -71 34 -142 76 -210 123 -200 119 -239 94 -18 -11 -38 -20 -44 -20 -20 0
-183 101 -177 109 2 5 18 14 35 21 16 7 30 15 30 19 0 3 -78 50 -173 103 -95
54 -194 111 -220 128 l-47 30 0 74 c0 41 4 78 10 81 12 7 26 0 283 -149 117
-67 235 -135 262 -150 l50 -28 155 88 c85 48 220 125 300 171 80 45 148 83
153 83 4 0 7 -248 7 -550z m-1320 300 c164 -96 491 -284 558 -322 28 -16 52
-33 52 -38 0 -4 -39 -31 -86 -59 l-86 -52 -97 55 c-53 29 -157 88 -231 130
-74 42 -138 76 -142 76 -5 0 -8 -178 -8 -395 l0 -396 -92 3 -93 3 -3 564 -2
563 52 -30 c29 -16 109 -62 178 -102z"/>
</g>
</svg>
